<svg xmlns="http://www.w3.org/2000/svg"
shape-rendering="geometricPrecision"
width="4000" height="4000" viewBox="0 0 634 634"><rect width="100%" height="100%" fill="#FFFFFF" />
  <metadata>null</metadata>

<path d="
M 27.852 439.304
C 34.725 439.764 41.681 438.867 48.537 439.582
C 53.261 440.075 57.751 442.154 59.529 446.872
C 61.909 453.189 58.03 460.203 51.771 462.143
C 49.616 462.811 42.746 464.47 42.213 461.304
C 45.592 460.69 48.941 460.913 51.224 457.819
C 57.332 449.543 49.106 438.778 39.479 442.134
C 38.825 444.718 39.285 447.843 39.288 450.499
C 39.294 456.002 39.397 461.502 39.356 467.005
C 39.333 470.095 38.466 474.648 39.557 477.569
C 40.284 479.518 42.996 479.238 44.567 479.821
C 44.715 480.209 44.875 480.633 44.649 481.01
C 40.329 481.208 35.971 480.676 31.628 480.952
C 30.208 481.042 27.59 481.764 27.777 479.798
C 29.549 479.508 31.597 479.543 32.604 477.733
C 33.066 476.903 32.94 475.659 32.927 474.752
C 32.901 472.896 33.044 471.044 33.062 469.186
C 33.119 463.024 33.068 456.859 33.07 450.697
C 33.071 448.272 33.648 444.619 32.612 442.381
C 31.429 441.244 27.189 441.082 27.852 439.304 Z"
opacity="1" fill="rgb(49,49,50)" fill-rule="evenodd" />
<path d="
M 65.87 479.808
C 67.649 479.39 70.154 479.537 71.074 477.539
C 72.227 475.036 71.334 470.722 71.341 468
C 71.356 462.5 71.345 456.999 71.359 451.499
C 71.366 448.566 71.82 445.209 71.11 442.341
C 69.882 441.243 65.565 441.458 66.27 439.344
C 69.82 439.347 73.372 439.625 76.931 439.53
C 78.539 439.488 80.974 438.822 82.445 439.464
C 82.483 439.76 82.688 440.63 82.449 440.891
C 82.255 441.102 81.055 441.001 80.772 441.043
C 79.575 441.224 78.658 441.675 77.841 442.575
C 77.183 444.175 77.428 446.107 77.427 447.806
C 77.425 451.289 77.54 454.776 77.566 458.249
C 85.044 458.153 92.842 457.745 100.296 458.315
C 100.321 454.715 100.33 451.107 100.306 447.505
C 100.294 445.857 100.611 443.81 99.794 442.319
C 98.76 441.545 97.312 441.143 96.037 440.95
C 95.847 440.922 94.994 441.013 94.943 440.709
C 94.857 440.205 95.033 439.941 95.205 439.473
C 98.318 439.07 101.843 439.619 105.001 439.629
C 106.951 439.636 109.253 439.039 111.147 439.322
C 111.386 439.797 111.392 440.342 111.348 440.863
C 109.706 440.816 107.643 441.262 106.56 442.555
C 105.604 444.752 106.234 448.134 106.238 450.5
C 106.247 456.666 106.261 462.832 106.27 468.998
C 106.274 471.433 105.5 475.67 106.742 477.83
C 107.776 479.628 109.898 479.195 111.594 479.709
C 111.707 480.179 111.836 480.58 111.641 481.039
C 107.277 481.104 102.89 480.856 98.513 480.938
C 96.98 480.967 94.349 481.842 94.833 479.568
C 96.724 479.35 98.387 479.336 99.663 477.731
C 100.6 476.553 100.276 474.256 100.282 472.858
C 100.298 468.926 100.299 464.984 100.304 461.059
C 99.955 460.672 99.5 460.877 99.019 460.885
C 97.525 460.913 96.032 460.901 94.538 460.892
C 89.076 460.86 82.929 459.994 77.553 461.066
C 77.387 464.738 77.541 468.445 77.559 472.128
C 77.567 473.843 77.27 475.927 77.846 477.563
C 78.744 480.118 82.715 478.288 82.551 481.052
C 78.344 481.083 74.037 480.486 69.839 480.891
C 68.429 481.026 65.852 481.746 65.87 479.808 Z"
opacity="1" fill="rgb(49,50,51)" fill-rule="evenodd" />
<path d="
M 117.97 460.118
C 118.085 455.853 119.191 451.631 121.583 448.065
C 131.127 433.832 157.17 436.024 160.877 454.073
C 161.298 456.122 161.694 458.272 161.554 460.373
C 161.136 466.67 158.523 472.947 153.431 476.909
C 145.975 482.712 134.158 483.771 126.33 477.947
C 122.904 475.398 120.594 471.696 119.166 467.724
C 118.299 465.312 117.901 462.681 117.97 460.118 Z
M 124.939 456.617
C 124.468 463.687 126.808 472.186 132.599 476.67
C 138.017 480.865 146.518 480.535 150.927 474.954
C 153.409 471.812 154.473 467.355 154.73 463.435
C 155.201 456.282 152.812 447.808 146.795 443.43
C 141.588 439.64 133.375 439.906 129.077 444.996
C 126.449 448.107 125.204 452.623 124.939 456.617 Z"
opacity="1" fill="rgb(49,49,49)" fill-rule="evenodd" />
<path d="
M 154.475 277.107
C 154.919 274.228 155.121 271.385 156.022 268.585
C 158.626 260.491 163.242 253.924 169.847 248.612
C 173.018 246.062 176.676 244.282 180.299 242.469
C 181.338 241.949 183.434 240.437 184.673 240.686
C 185.217 240.795 183.988 243.199 183.873 243.532
C 182.231 247.933 181.028 252.438 180.079 257.042
C 179.49 259.9 179.259 262.821 178.3 265.594
C 176.083 271.998 172.171 277.583 166.99 281.943
C 164.251 284.249 161.114 286.253 157.875 287.775
C 157.505 287.949 155.19 289.364 155.018 289.093
C 154.843 285.072 154.127 281.15 154.475 277.107 Z"
opacity="1" fill="rgb(5,75,64)" fill-rule="evenodd" />
<path d="
M 155.923 241.535
C 161.867 229.446 176.392 221.747 189.825 225.392
C 190.002 226.083 189.102 227.155 188.719 227.71
C 187.361 229.685 186.054 231.676 184.361 233.392
C 176.628 241.232 166.189 243.68 155.52 242.595
C 155.845 241.836 155.717 242.191 155.923 241.535 Z"
opacity="1" fill="rgb(5,74,62)" fill-rule="evenodd" />
<path d="
M 161.49 323.105
C 162.164 318.336 162.703 313.701 164.074 309.05
C 167.082 298.838 172.338 288.925 178.525 280.278
C 179.069 291.521 182.05 303.11 186.64 313.377
C 188.178 316.816 189.892 320.18 191.876 323.384
C 192.655 324.643 194.369 326.443 194.47 327.955
C 194.721 331.704 193.104 336.198 191.788 339.645
C 187.773 350.154 180.384 358.756 171.51 365.507
C 168.743 361.912 167.01 356.818 165.623 352.542
C 162.514 342.956 160.702 333.22 161.49 323.105 Z"
opacity="1" fill="rgb(4,76,65)" fill-rule="evenodd" />
<path d="
M 161.838 212.967
C 165.814 206.552 169.746 200.529 175.306 195.33
C 186.86 184.527 203.887 177.789 219.873 179.479
C 228.919 180.435 237.526 182.737 246.116 185.695
C 246.1 186.204 245.388 186.235 245.003 186.302
C 243.537 186.559 242.075 187.146 240.665 187.613
C 235.051 189.471 229.671 191.947 224.598 194.983
C 218.587 198.579 212.672 202.432 207.568 207.271
C 205.464 209.267 203.491 211.366 201.484 213.456
C 200.389 214.598 199.293 216.046 197.826 216.727
C 196.197 217.484 194.346 217.668 192.601 218.002
C 186.648 219.143 180.896 218.952 174.929 218.055
C 170.942 217.456 164.732 216.535 161.555 213.898
C 161.698 213.195 161.589 213.501 161.838 212.967 Z"
opacity="1" fill="rgb(5,76,65)" fill-rule="evenodd" />
<path d="
M 166.433 447.606
C 167.128 444.85 167.192 441.772 167.331 438.944
C 179.71 439.416 192.343 440.088 204.73 439.144
C 205.111 441.378 204.87 443.841 204.999 446.113
C 205.044 446.907 205.449 448.104 205.196 448.858
C 205.078 449.208 203.789 449.148 203.5 449.004
C 202.979 447.114 203.038 444.815 201.785 443.198
C 200.923 442.086 199.269 442.29 198.015 442.251
C 194.943 442.155 191.79 442.034 188.724 442.242
C 188.013 451.493 188.789 461.054 188.837 470.335
C 188.85 472.839 187.97 478.195 191.088 479.274
C 192.189 479.503 193.374 479.415 194.339 480.045
C 194.535 480.478 194.601 480.676 194.491 481.135
C 189.881 481.305 185.262 480.758 180.623 481.091
C 178.769 481.225 177.041 481.854 176.922 479.665
C 178.718 479.186 181.158 479.535 182.363 477.783
C 182.913 476.984 182.772 475.605 182.779 474.678
C 182.796 472.453 182.762 470.228 182.775 468.004
C 182.808 462.338 182.805 456.671 182.789 451.005
C 182.782 448.117 182.505 445.079 182.789 442.209
C 179.908 442.382 177.003 442.161 174.115 442.321
C 172.784 442.395 171.373 442.345 170.364 443.354
C 168.696 445.021 169.286 447.686 167.89 449.249
C 166.623 449.076 166.29 449.014 166.433 447.606 Z"
opacity="1" fill="rgb(50,51,52)" fill-rule="evenodd" />
<path d="
M 183.482 272.614
C 184.014 267.892 184.039 263.198 184.966 258.508
C 187.266 246.873 191.926 236.44 197.974 226.314
C 208.974 227.162 219.979 229.091 230.931 230.446
C 234.531 230.892 238.132 231.436 241.741 231.792
C 243.288 231.945 245.614 231.852 247.011 232.456
C 245.615 234.988 243.45 237.093 241.663 239.35
C 238.027 243.945 234.376 248.513 230.653 253.035
C 220.977 264.787 211.776 277.083 202.874 289.428
C 199.65 293.899 196.29 298.289 193.217 302.867
C 192.449 304.011 191.687 305.153 190.956 306.321
C 190.698 306.733 190.498 307.372 189.941 307.161
C 185.272 296.705 182.647 284.103 183.482 272.614 Z"
opacity="1" fill="rgb(4,75,64)" fill-rule="evenodd" />
<path d="
M 192.229 312.521
C 193.278 310.793 194.703 309.26 195.851 307.583
C 202.96 297.198 210.572 287.194 217.971 277.02
C 219.665 274.689 221.669 272.539 223.273 270.155
C 223.542 269.957 224.268 272.289 224.446 272.744
C 225.466 275.359 226.108 278.143 226.936 280.825
C 229.109 287.869 231.491 294.85 233.746 301.868
C 237.927 314.884 241.981 327.943 246.225 340.945
C 247.746 345.603 249.303 350.242 250.793 354.909
C 251.477 357.05 252.83 359.558 252.997 361.797
C 232.973 357.424 214.813 345.188 202.265 329.169
C 199.392 325.502 196.96 321.654 194.676 317.596
C 193.801 316.041 192.482 314.31 192.229 312.521 Z"
opacity="1" fill="rgb(4,76,65)" fill-rule="evenodd" />
<path d="
M 195.886 344.56
C 197.852 337.341 208.094 340.836 206.07 347.589
C 204.069 354.262 194.073 351.217 195.886 344.56 Z"
opacity="1" fill="rgb(9,79,62)" fill-rule="evenodd" />
<path d="
M 197.217 359.93
C 201.962 357.534 206.955 355.255 211.988 353.531
C 214.178 352.781 216.723 351.751 219.068 351.883
C 223.755 354.958 228.193 358.142 233.254 360.635
C 248.306 368.048 265.636 370.932 282.285 369.154
C 288.985 368.439 297.114 367.471 303.194 364.373
C 303.294 365.314 303.182 366.362 302.983 367.284
C 302.037 368.954 299.049 370.013 297.472 371.071
C 292.962 374.101 288.522 377.187 283.927 380.093
C 277.106 384.405 270.402 389.249 262.801 392.142
C 247.06 398.133 229.377 398.253 215.348 388.015
C 211.599 385.28 208.303 381.916 205.609 378.14
C 202.707 374.07 200.795 369.937 198.98 365.311
C 198.343 363.687 197.204 361.688 197.217 359.93 Z"
opacity="1" fill="rgb(3,76,66)" fill-rule="evenodd" />
<path d="
M 200.943 168.592
C 202.364 160.883 213.575 163.433 212.207 170.869
C 210.826 178.376 199.578 175.997 200.943 168.592 Z"
opacity="1" fill="rgb(5,70,58)" fill-rule="evenodd" />
<path d="
M 201.884 220.973
C 212.684 207.835 227.817 196.921 244.247 192.161
C 249.191 190.728 254.298 189.508 259.409 188.851
C 262.766 188.42 266.187 188.394 269.528 187.886
C 271.003 191.721 273.464 195.361 275.328 199.031
C 279.059 206.374 282.805 213.71 286.539 221.051
C 287.923 223.77 289.346 226.474 290.751 229.183
C 291.26 230.165 292.607 231.671 292.799 232.705
C 286.789 233.049 280.131 231.484 274.149 230.796
C 261.741 229.367 249.318 227.912 236.952 226.141
C 229.965 225.14 222.91 224.368 215.898 223.552
C 211.234 223.009 206.187 222.933 201.677 221.576
C 201.746 221.375 201.815 221.174 201.884 220.973 Z"
opacity="1" fill="rgb(5,76,65)" fill-rule="evenodd" />
<path d="
M 210.353 153.938
C 224.072 152.241 238.443 152.812 251.558 157.49
C 263.622 161.792 272.959 170.016 283.778 176.508
C 288.182 179.15 293.125 181.412 297.885 183.327
C 299.649 184.037 301.652 184.463 303.342 185.291
C 303.723 185.8 304.128 188.487 303.477 188.929
C 300.599 188.492 297.699 187.052 294.907 186.211
C 290.695 184.941 286.341 184.144 281.984 183.565
C 277.127 182.92 272.127 182.659 267.23 182.807
C 264.554 182.888 261.689 183.473 259.033 183.166
C 244.19 181.451 229.312 175.446 218.44 165.055
C 215.075 161.838 212.974 157.863 210.05 154.356
C 210.151 154.217 210.252 154.078 210.353 153.938 Z"
opacity="1" fill="rgb(4,74,63)" fill-rule="evenodd" />
<path d="
M 210.467 458.611
C 211.006 451.029 215.657 444.298 222.409 440.93
C 232.313 435.991 246.446 439.214 251.538 449.567
C 253.414 453.383 254.038 457.799 253.706 462.018
C 253.01 470.866 246.742 478.337 238.256 480.834
C 227.888 483.884 215.121 478.836 211.731 468.088
C 210.76 465.008 210.237 461.853 210.467 458.611 Z
M 217.442 455.619
C 216.871 463.235 218.781 471.846 225.105 476.729
C 230.162 480.635 238.618 480.386 242.947 475.4
C 245.747 472.177 246.677 467.768 246.992 463.639
C 247.554 456.258 245.126 447.667 238.843 443.241
C 233.668 439.597 225.723 440.065 221.482 444.979
C 218.972 447.887 217.725 451.841 217.442 455.619 Z"
opacity="1" fill="rgb(52,52,52)" fill-rule="evenodd" />
<path d="
M 227.461 264.536
C 229.872 261.373 232.572 258.623 234.735 255.239
C 234.948 255.327 234.793 256.313 234.754 256.553
C 234.559 257.725 234.117 258.837 233.917 260.013
C 233.273 263.812 232.214 267.543 231.533 271.34
C 231.314 272.558 231.368 275.247 230.552 276.216
C 229.769 274.499 229.645 272.485 229.106 270.677
C 228.542 268.785 227.467 266.881 227.182 264.936
C 227.275 264.802 227.368 264.669 227.461 264.536 Z"
opacity="1" fill="rgb(18,70,59)" fill-rule="evenodd" />
<path d="
M 239.93 249.007
C 243.037 245.37 245.872 241.512 248.791 237.725
C 249.963 236.205 250.984 234.433 252.338 233.072
C 255.869 233.86 259.733 234.145 263.341 234.454
C 263.93 234.504 266.781 234.47 266.463 235.334
C 266.136 236.219 263.09 237.232 262.278 237.637
C 258.071 239.733 253.913 241.944 249.787 244.195
C 247.224 245.593 244.749 247.113 242.204 248.54
C 241.589 248.885 240.059 250.201 239.93 249.007 Z"
opacity="1" fill="rgb(7,69,52)" fill-rule="evenodd" />
<path d="
M 242.627 314.554
C 253.8 316.868 264.808 320.768 275.734 324.056
C 284.815 326.788 294.089 328.943 303.116 331.846
C 303.481 332.243 303.271 333.175 303.256 333.701
C 303.209 335.466 303.238 337.233 303.236 338.998
C 303.23 345.597 303.103 352.219 303.245 358.814
C 291.942 362.475 280.836 365.127 268.828 364.291
C 266.628 364.138 264.442 363.87 262.241 363.7
C 261.167 363.617 259.662 363.736 258.707 363.234
C 252.734 347.259 248.187 330.682 242.627 314.554 Z"
opacity="1" fill="rgb(3,75,64)" fill-rule="evenodd" />
<path d="
M 260.413 440.038
C 260.479 439.807 260.545 439.576 260.611 439.345
C 264.125 439.082 268.278 439.064 271.79 439.347
C 276.595 450.2 281.928 460.897 287.085 471.587
C 287.783 471.258 288.001 470.027 288.276 469.36
C 289.09 467.383 290.126 465.452 291.052 463.521
C 294.902 455.493 298.495 447.315 302.423 439.333
C 304.773 439.323 307.124 439.542 309.477 439.533
C 310.812 439.528 312.137 439.16 313.458 439.511
C 313.562 439.937 313.766 440.424 313.383 440.719
C 311.847 440.796 309.264 441.166 308.671 442.877
C 307.611 445.936 308.34 450.382 308.351 453.586
C 308.371 459.689 307.836 466.075 308.531 472.138
C 308.739 473.951 308.394 475.78 308.89 477.563
C 309.912 479.215 314.136 479.052 313.863 480.908
C 312.587 481.363 310.842 480.966 309.5 480.936
C 306.843 480.878 304.169 480.833 301.513 480.944
C 300.264 480.996 298.115 481.533 297.016 480.946
C 297.214 478.303 300.258 479.695 301.954 478.179
C 302.813 476.428 302.346 473.809 302.348 471.91
C 302.351 467.271 302.376 462.631 302.394 457.991
C 302.405 455.09 302.163 452.103 302.349 449.214
C 302.376 448.783 302.838 446.668 302.171 446.649
C 300.03 450.182 298.447 454.422 296.712 458.198
C 293.688 464.102 291.094 470.214 288.206 476.176
C 287.67 477.283 286.489 481.837 285.054 481.364
C 284.088 480.354 283.615 478.892 283.046 477.638
C 281.988 475.307 280.81 473.033 279.749 470.703
C 276.159 462.81 272.824 454.672 268.873 446.974
C 267.907 448.643 268.488 452.558 268.459 454.549
C 268.383 459.77 268.284 465.013 268.291 470.235
C 268.295 472.658 267.992 475.697 268.992 477.952
C 270.486 479.1 272.33 478.675 273.844 479.506
C 273.863 479.75 274.023 480.665 273.861 480.884
C 273.616 481.217 271.584 480.907 271.185 480.894
C 268.495 480.803 265.825 480.923 263.139 480.972
C 261.733 480.998 260.182 481.435 260.144 479.701
C 260.466 479.13 261.397 479.223 262.026 479.179
C 263.262 479.091 264.718 478.592 265.196 477.327
C 266.132 474.847 265.699 471.609 265.741 469
C 265.836 463.144 265.818 457.286 265.928 451.432
C 265.967 449.375 266.079 447.343 266.036 445.277
C 266.02 444.465 266.079 443.225 265.602 442.54
C 264.607 441.745 263.248 441.242 262.006 440.947
C 261.823 440.904 260.462 440.807 260.385 440.65
C 260.294 440.467 260.404 440.242 260.413 440.038 Z"
opacity="1" fill="rgb(50,51,51)" fill-rule="evenodd" />
<path d="
M 272.319 235.445
C 277.257 236.194 282.237 236.73 287.21 237.258
C 289.833 237.536 292.621 237.498 295.196 238.061
C 296.683 239.764 297.418 242.297 298.435 244.299
C 299.153 245.714 300.327 246.953 300.952 248.383
C 297.542 248.095 293.904 245.661 290.856 244.209
C 284.742 241.298 278.486 238.584 272.289 235.881
C 272.299 235.735 272.309 235.59 272.319 235.445 Z"
opacity="1" fill="rgb(9,64,53)" fill-rule="evenodd" />
<path d="
M 275.785 188.333
C 282.821 188.728 290.134 190.119 296.807 192.386
C 298.517 192.966 302.387 193.45 303.447 194.938
C 303.051 206.271 303.423 217.659 303.369 229
C 303.354 232.137 303.194 235.274 303.19 238.411
C 303.188 239.794 303.661 241.617 303.354 242.944
C 302.737 242.879 302.033 240.743 301.766 240.22
C 300.136 237.027 298.469 233.839 296.9 230.617
C 292.026 220.607 287 210.612 281.828 200.753
C 280.382 197.997 278.92 195.245 277.444 192.504
C 276.745 191.206 275.731 189.841 275.785 188.333 Z"
opacity="1" fill="rgb(6,73,62)" fill-rule="evenodd" />
<path d="
M 286.289 321.547
C 291.909 317.929 297.022 312.655 303.09 309.772
C 303.893 315.191 303.155 320.969 303.308 326.434
C 301.575 326.492 299.411 325.645 297.773 325.115
C 295.345 324.33 292.853 323.7 290.398 323.004
C 289.526 322.756 286.291 322.454 286.289 321.547 Z"
opacity="1" fill="rgb(11,75,65)" fill-rule="evenodd" />
<path d="
M 351.359 263.567
C 353.054 265.643 355.025 267.545 356.472 269.818
C 359.61 274.744 361.236 280.877 360.742 286.69
C 360.562 288.807 360.474 292.045 359.17 293.795
C 358.435 295.155 357.883 296.845 357.602 298.365
C 355.651 301.257 352.995 303.873 351.256 306.886
C 349.678 307.859 347.965 308.542 346.411 309.592
C 346.037 313.49 346.354 317.577 346.342 321.495
C 346.316 329.495 346.299 337.495 346.278 345.496
C 346.27 348.663 346.26 351.83 346.24 354.997
C 346.233 356.14 346.525 357.95 345.834 358.919
C 342.512 360.406 338.559 361.036 335.05 361.98
C 326.486 364.283 317.34 366.622 308.49 367.407
C 307.362 366.501 308.064 362.303 308.051 360.853
C 307.988 354.105 307.893 347.349 307.873 340.593
C 307.848 332.46 307.929 324.346 307.876 316.217
C 307.853 312.683 308.417 308.598 307.716 305.132
C 307.429 303.714 305.654 302.5 304.779 301.401
C 303.255 299.489 302.051 297.355 301.146 295.086
C 297.816 286.737 298.655 277.634 303.187 269.917
C 304.46 267.75 306.324 266.306 307.849 264.387
C 308.237 261.973 307.894 259.287 307.9 256.841
C 307.91 252.724 308.047 248.608 308.054 244.487
C 308.078 230.938 307.977 217.392 307.937 203.843
C 307.916 196.397 307.845 188.952 307.749 181.506
C 307.709 178.458 308.411 174.374 307.647 171.439
C 306.545 171.271 304.939 171.868 303.86 172.206
C 302.031 172.779 300.178 173.346 298.397 174.057
C 295.486 175.219 293.953 176.459 290.846 174.767
C 289.907 174.255 288.165 173.361 287.823 172.342
C 292.789 169.474 298.448 166.312 304.086 165.039
C 310.835 163.515 318.733 164.342 325.613 164.464
C 328.77 164.52 331.938 164.514 335.095 164.645
C 336.491 164.702 338.145 164.537 339.463 165.014
C 341.495 166.687 344.533 169.368 345.807 171.674
C 346.592 173.093 345.942 175.911 345.947 177.498
C 345.964 182.331 345.962 187.165 345.976 191.998
C 345.984 194.664 346.004 197.332 345.985 199.998
C 345.979 200.946 346.292 202.626 345.945 203.466
C 342.963 201.96 340.311 199.582 337.362 197.94
C 335.774 197.056 333.343 196.392 332.113 195.065
C 331.969 194.033 331.904 193.007 331.856 191.968
C 331.051 191.411 328.523 191.866 327.502 191.878
C 323.79 191.919 320.068 191.834 316.359 191.995
C 316.008 192.984 316.234 194.437 316.233 195.498
C 316.228 198.039 316.327 200.591 316.268 203.13
C 317.655 203.118 319.124 202.915 320.5 203.193
C 322.641 203.626 324.848 205.58 326.649 206.75
C 330.195 209.055 333.784 211.272 337.284 213.648
C 340.158 215.598 343.576 217.369 346.053 219.812
C 346.803 222.737 346.172 226.475 346.172 229.494
C 346.172 236.218 346.121 242.94 346.082 249.663
C 346.067 252.278 345.919 254.878 345.949 257.499
C 345.958 258.34 345.676 259.542 346.237 260.218
C 347.776 261.223 350.139 262.231 351.359 263.567 Z
M 311.95 281.595
C 311.062 288.41 313.333 295.374 318.35 300.118
C 319.959 301.64 321.945 302.55 323.718 303.833
C 324.396 305.092 324.016 306.623 324.361 307.974
C 324.163 308.179 322.817 307.906 322.497 307.904
C 321.167 307.897 319.826 308.038 318.505 308.026
C 318.047 308.022 317.136 307.745 316.724 307.982
C 315.62 308.617 315.933 310.12 315.947 311.236
C 315.982 313.881 316.163 316.573 316.123 319.208
C 321.47 319.239 326.991 319.639 332.325 319.192
C 332.391 318.273 332.134 317.277 332.112 316.347
C 332.739 314.806 334.527 313.917 335.502 312.585
C 337.459 309.915 337.978 306.995 338.146 303.77
C 341.982 301.901 345.189 299.884 347.594 296.238
C 353.479 287.319 352.162 274.392 342.835 268.19
C 341.18 267.089 338.575 265.205 336.613 264.886
C 336.081 264.974 335.498 265.124 334.958 265.058
C 335.405 261.351 335.009 257.228 333.678 253.727
C 332.123 253.342 330.119 253.705 328.503 253.701
C 324.399 253.691 320.296 253.768 316.197 253.793
C 316.146 256.362 316.18 258.932 316.216 261.501
C 316.231 262.584 316.038 263.954 316.387 264.973
C 318.268 264.987 321.247 264.612 322.924 265.5
C 322.946 266.427 322.276 266.735 321.574 267.205
C 320.138 268.166 318.767 269.198 317.563 270.445
C 314.487 273.63 312.909 277.339 311.95 281.595 Z
M 315.929 328.309
C 315.907 331.965 315.927 335.599 316.045 339.254
C 321.42 339.27 326.808 339.168 332.183 339.211
C 331.877 335.637 332.254 331.863 332.191 328.263
C 330.845 327.657 328.486 328.119 327.001 328.141
C 323.31 328.197 319.616 328.123 315.929 328.309 Z
M 316.2 171.734
C 316.375 175.334 315.851 179 316.213 182.598
C 321.521 182.914 326.972 182.677 332.29 182.638
C 331.95 178.948 332.495 175.2 331.929 171.516
C 326.838 171.262 321.273 171.227 316.2 171.734 Z
M 316.185 212.715
C 316.363 215.462 316.221 218.293 316.206 221.05
C 316.202 221.759 315.917 223.49 316.457 223.887
C 321.667 224.007 326.912 224.001 332.119 223.805
C 332.135 220.198 331.8 216.487 332.001 212.898
C 331.437 212.28 328.884 212.639 328.009 212.622
C 324.122 212.544 320.049 212.292 316.185 212.715 Z
M 316.2 233.258
C 316.182 236.908 316.211 240.57 316.164 244.223
C 317.191 244.825 319.299 244.402 320.503 244.419
C 324.426 244.473 328.41 244.564 332.33 244.394
C 331.934 240.907 332.042 236.768 332.311 233.266
C 326.943 233.24 321.568 233.252 316.2 233.258 Z
M 316.141 348.724
C 316.21 351.299 316.159 353.913 316.125 356.492
C 316.112 357.422 315.861 358.703 316.389 359.487
C 319.757 359.653 323.127 359.638 326.499 359.62
C 328.259 359.611 330.274 359.853 331.99 359.446
C 331.948 355.904 331.939 352.099 332.254 348.563
C 331.81 347.942 329.047 348.476 328.309 348.534
C 324.283 348.849 320.18 348.57 316.141 348.724 Z"
opacity="1" fill="rgb(210,143,51)" fill-rule="evenodd" />
<path d="
M 339.445 382.122
C 341.84 383.681 342.534 385.46 344.341 387.571
C 344.896 387.966 345.493 388.058 346.161 388.126
C 346.483 388.436 345.117 389.199 344.867 389.427
C 344.242 390.773 344.517 391.697 346.007 391.76
C 340.885 393.159 334.826 392.51 329.5 392.578
C 321.848 392.675 313.688 393.425 306.115 392.105
C 302.56 391.486 299.15 390.033 295.899 388.513
C 293.37 387.331 290.568 386.287 288.48 384.385
C 289.489 383.219 291.644 381.6 293.203 381.435
C 294.671 381.28 296.397 382.042 297.776 382.465
C 300.792 383.392 304.369 384.662 307.522 384.87
C 307.697 384.749 307.634 383.903 307.642 383.72
C 307.69 382.579 307.768 381.437 307.781 380.295
C 310.376 380.269 313.171 380.073 315.726 379.624
C 316.025 381.465 315.846 383.443 316.387 385.226
C 320.009 384.798 323.889 385.065 327.539 385.092
C 328.679 385.101 331.043 385.638 332.029 385.139
C 331.702 383.534 331.913 381.745 332.143 380.142
C 334.75 380.161 337.044 381.239 339.445 382.122 Z"
opacity="1" fill="rgb(205,142,54)" fill-rule="evenodd" />
<path d="
M 351.256 306.886
C 352.995 303.873 355.651 301.257 357.602 298.365
C 357.489 299.414 356.913 301.231 357.285 302.199
C 360.57 301.646 364.456 302.213 367.791 302.294
C 367.618 299.261 368.156 296.115 367.763 293.103
C 365.126 293.236 361.57 292.576 359.17 293.795
C 360.474 292.045 360.562 288.807 360.742 286.69
C 361.236 280.877 359.61 274.744 356.472 269.818
C 355.025 267.545 353.054 265.643 351.359 263.567
C 350.745 262.314 350.908 261.02 350.842 259.663
C 350.694 256.615 350.76 253.553 350.77 250.503
C 350.794 243.169 350.794 235.835 350.815 228.501
C 350.825 225.138 351.336 221.452 350.886 218.126
C 343.2 210.169 332.549 206.046 323.816 199.544
C 323.781 198.572 323.998 197.215 324.808 196.602
C 327.716 197.497 330.439 199.471 333.127 200.893
C 337.841 203.387 342.426 206.071 346.7 209.272
C 348.041 210.276 349.645 211.142 350.762 212.41
C 350.684 205.114 350.757 197.798 350.84 190.497
C 350.861 188.668 350.861 186.841 350.802 185.013
C 350.792 184.72 350.615 183.495 350.829 183.321
C 351.044 183.146 353.674 184.709 354.039 184.875
C 357.926 186.643 361.728 188.636 365.37 190.865
C 375.057 196.793 384.189 202.929 392.094 211.179
C 394.243 213.422 396.398 215.74 398.279 218.216
C 400.095 220.605 401.562 223.365 403.594 225.576
C 403.603 220.744 402.689 215.875 402.633 211.005
C 402.567 205.237 403.362 199.422 403.239 193.693
C 404.268 193.538 406.446 192.874 407.33 193.555
C 407.25 204.781 406.191 215.817 407.973 227.009
C 409.235 234.937 412.15 242.232 414.18 249.947
C 415.972 256.753 417.114 263.532 417.965 270.493
C 418.939 270.02 418.982 268.346 419.281 267.417
C 420.125 264.794 421.177 262.168 422.352 259.673
C 425.41 253.177 429.005 247.1 433.126 241.22
C 434.777 238.864 436.612 235.754 439.012 234.113
C 439.73 235.134 440.859 235.844 441.528 236.897
C 441.13 238.078 440.044 238.982 439.28 239.934
C 437.687 241.92 436.163 243.997 434.739 246.108
C 430.58 252.276 426.902 258.998 424.273 265.968
C 419.314 279.117 418.201 293.02 414.517 306.483
C 412.604 313.474 409.401 319.749 406.176 326.17
C 406.757 326.46 408.442 325.022 408.921 324.708
C 411.621 322.936 414.389 321.225 417.294 319.806
C 424.838 316.119 432.845 313.354 441.011 311.42
C 443.954 310.723 447.831 309.438 450.866 309.892
C 450.726 311.2 450.559 312.728 450.118 313.967
C 448.818 314.505 447.196 314.466 445.814 314.711
C 443.281 315.159 440.783 315.73 438.302 316.408
C 429.765 318.741 421.535 322.124 413.916 326.643
C 404.452 332.256 396.822 339.809 388.211 346.512
C 382.243 351.157 375.95 355.118 369.227 358.582
C 361.642 362.49 353.46 365.585 345.334 368.16
C 342.686 368.999 340 369.777 337.326 370.514
C 336.317 370.793 334.976 370.754 334.306 371.615
C 336.122 372.088 338.152 372.08 340.025 372.451
C 344.753 373.388 349.607 375.1 353.588 377.841
C 353.086 378.415 352.067 377.943 351.792 378.896
C 351.646 380.05 352.143 382.668 351.434 383.593
C 348.383 382.098 345.64 379.918 342.533 378.46
C 332.626 373.908 323 375.061 312.49 375.803
C 308.732 376.068 304.979 376.524 301.219 376.802
C 300.694 376.84 297.727 377.431 297.833 376.617
C 307.225 370.351 319.491 370.562 330.25 367.965
C 353.633 362.321 378.681 352.895 394.756 334.133
C 400.984 326.863 406.422 319.204 407.525 309.41
C 408.732 298.681 406.352 288.138 404.545 277.652
C 405.469 277.606 406.351 277.59 407.271 277.696
C 410.072 282.19 410.881 288.778 411.474 293.959
C 411.649 295.486 411.396 297.402 411.806 298.834
C 412.175 298.602 412.148 297.872 412.239 297.486
C 412.599 295.975 412.907 294.484 413.106 292.939
C 413.872 287.009 414.415 280.974 413.956 275.001
C 412.897 261.237 410.136 247.67 404.039 235.17
C 399.233 225.319 392.261 216.876 384.253 209.493
C 378.758 204.428 372.393 198.6 365.41 195.7
C 363.584 194.942 361.526 194.946 359.58 194.905
C 358.873 194.89 358.092 194.681 357.653 195.293
C 357.522 198.091 357.753 200.897 357.628 203.694
C 358.303 204.069 359.412 203.874 360.178 203.86
C 362.398 203.822 365.642 204.44 367.738 203.811
C 367.789 203.176 367.738 202.543 367.678 201.909
C 369.93 202.963 373.162 204.6 374.57 206.723
C 375.02 209.359 374.618 212.317 374.598 214.991
C 374.565 219.574 374.785 224.182 374.648 228.758
C 373.53 228.867 372.434 229.261 371.471 229.825
C 371.254 234.879 371.178 240.2 372.107 245.193
C 372.814 248.993 374.639 252.505 374.629 256.407
C 374.618 260.782 374.606 265.156 374.653 269.531
C 374.669 270.985 374.183 273.359 374.883 274.637
C 380.266 275.914 386.5 275.114 392.008 275.274
C 393.997 275.332 397.177 275.027 398.942 276.026
C 399.675 276.992 401.181 278.93 401.174 280.175
C 394.805 280.772 388.303 280.615 381.908 280.635
C 379.899 280.641 376.215 279.997 374.755 281.71
C 374.378 283.253 374.611 284.916 374.573 286.494
C 374.49 290.026 374.419 293.564 374.44 297.103
C 374.452 299.003 374.999 301.557 374.226 303.338
C 373.617 304.742 372.138 305.904 371.242 307.143
C 370.141 308.666 369.511 310.541 368.427 312.032
C 368.163 312.395 367.252 310.273 367.182 310.113
C 366.651 309.76 365.632 309.889 365.002 309.881
C 363.334 309.863 361.667 309.85 360 309.925
C 359.297 309.957 358.241 309.75 357.702 310.238
C 357.614 312.974 357.536 315.751 357.708 318.485
C 360.033 318.493 362.609 318.677 364.904 318.402
C 363.987 320.998 363.189 323.489 362.728 326.216
C 361.09 326.344 359.445 326.301 357.806 326.437
C 357.687 329.193 357.783 331.941 357.719 334.691
C 359.134 335.261 361.111 334.559 362.631 334.831
C 363.367 337.329 363.003 340.2 363.873 342.675
C 361.916 342.505 359.803 342.706 357.824 342.711
C 357.856 344.769 356.939 348.614 358.027 350.397
C 359.457 350.855 361.063 350.928 362.439 351.437
C 362.237 352.201 360.999 352.351 360.341 352.659
C 358.027 353.74 355.66 354.7 353.332 355.753
C 352.694 356.042 351.329 357.052 350.722 356.61
C 351.772 340.086 349.71 323.373 351.256 306.886 Z
M 357.478 264.616
C 357.337 266.115 357.25 267.686 357.423 269.184
C 357.702 269.604 358.985 269.295 359.499 269.295
C 361.582 269.295 363.682 269.358 365.765 269.254
C 366.182 269.233 367.711 269.366 367.948 269.017
C 367.977 266.319 368.001 263.624 368.011 260.927
C 364.691 260.566 361.176 260.739 357.847 260.9
C 357.388 262.041 357.657 263.408 357.478 264.616 Z
M 357.77 211.818
C 357.468 214.61 357.759 217.42 357.601 220.214
C 360.989 220.14 364.408 220.153 367.797 220.192
C 368.339 217.653 367.631 214.633 367.781 212.042
C 367.11 211.674 365.827 211.922 365.057 211.914
C 362.627 211.892 360.196 211.837 357.77 211.818 Z
M 357.73 228.189
C 357.601 230.146 357.619 232.076 357.62 234.037
C 357.62 234.756 357.379 235.958 357.916 236.426
C 360.422 236.247 362.983 236.435 365.5 236.38
C 366.181 236.365 367.586 236.724 368.136 236.333
C 368.085 233.629 368.162 230.898 368.18 228.189
C 364.738 228.006 361.165 227.907 357.73 228.189 Z
M 357.951 244.476
C 357.869 244.577 357.786 244.679 357.703 244.78
C 357.569 246.703 357.657 248.619 357.642 250.544
C 357.637 251.262 357.459 252.412 357.894 252.959
C 361.135 252.708 364.683 252.657 367.923 252.898
C 368.699 250.356 368.127 247.001 368.128 244.351
C 364.753 244.247 361.324 244.317 357.951 244.476 Z"
opacity="1" fill="rgb(5,72,59)" fill-rule="evenodd" />
<path d="
M 316.865 281.069
C 317.826 277.499 319.633 274.566 322.582 272.278
C 323.677 271.428 324.914 270.655 326.128 269.987
C 326.285 269.9 327.447 269.258 327.367 269.141
C 326.786 268.222 326.924 267.075 326.935 266.02
C 326.964 263.443 326.847 258.646 330.177 258.137
C 331.582 260.243 331.576 262.639 331.621 265.085
C 331.642 266.229 331.331 267.975 331.952 268.948
C 335.074 269.407 337.96 270.608 340.546 272.405
C 348.704 278.073 347.934 290.827 340.453 296.692
C 336.371 299.893 331.392 300.337 326.579 298.846
C 324.567 298.222 322.702 297.273 321.171 295.808
C 319.4 294.112 318.13 291.993 317.347 289.675
C 316.423 286.937 316.273 283.895 316.865 281.069 Z"
opacity="1" fill="rgb(211,145,54)" fill-rule="evenodd" />
<path d="
M 320.877 439.286
C 331.029 439.91 341.289 438.775 351.424 439.428
C 351.31 442.532 351.953 445.653 351.8 448.714
C 351.278 448.752 350.772 448.714 350.251 448.701
C 348.804 447.074 349.675 444.286 347.864 442.649
C 346.959 441.83 345.628 441.945 344.486 441.901
C 341.583 441.788 338.678 441.939 335.775 441.853
C 334.708 441.822 332.908 441.506 332.09 442.271
C 331.691 445.911 331.683 449.993 332.045 453.634
C 332.196 455.16 331.929 456.718 332.183 458.238
C 335.875 457.995 340.869 459.274 344.312 457.684
C 346.239 456.795 344.907 454.006 346.085 452.909
C 346.386 452.627 347.394 452.937 347.744 452.999
C 348.197 455.604 347.649 458.503 347.698 461.151
C 347.73 462.881 348.215 465.04 347.784 466.711
C 347.26 466.768 346.801 466.779 346.301 466.61
C 345.811 464.706 345.492 463.003 344.605 461.235
C 343.504 460.73 342.039 460.85 340.843 460.797
C 338.006 460.672 335.126 460.752 332.29 460.863
C 331.938 462.137 332.19 463.675 332.171 464.993
C 332.132 467.733 332.063 470.476 332.089 473.216
C 332.103 474.653 331.792 476.71 332.484 478.001
C 336.313 478.432 340.283 478.317 344.128 478.158
C 345.677 478.093 347.915 478.123 349.226 477.167
C 351.36 475.611 351.876 472.636 353.183 470.523
C 353.63 470.562 354.769 470.449 355.004 470.971
C 355.239 471.494 354.527 472.927 354.389 473.462
C 353.856 475.524 353.82 479.183 352.432 480.8
C 349.92 481.221 347.061 480.811 344.506 480.817
C 339.021 480.83 333.536 480.827 328.051 480.83
C 326.381 480.831 324.675 480.813 323.011 480.953
C 322.567 480.99 321.364 481.297 320.997 480.954
C 320.324 480.323 320.601 480.303 320.962 479.601
C 322.376 479.15 325.171 479.145 325.746 477.393
C 326.561 474.91 325.935 471.374 325.925 468.785
C 325.902 463.022 325.896 457.26 325.917 451.497
C 325.926 449.042 326.8 444.55 325.446 442.417
C 324.379 441.31 319.898 441.129 320.877 439.286 Z"
opacity="1" fill="rgb(49,51,51)" fill-rule="evenodd" />
<path d="
M 327.813 303.356
C 329.932 303.033 331.916 303.048 334.011 302.469
C 334.784 306.158 331.901 311.848 328.849 313.857
C 328.534 312.945 328.743 311.626 328.662 310.64
C 328.463 308.205 328.283 305.751 327.813 303.356 Z"
opacity="1" fill="rgb(178,125,54)" fill-rule="evenodd" />
<path d="
M 339.445 382.122
C 339.943 382.066 342.503 378.966 342.533 378.46
C 345.64 379.918 348.383 382.098 351.434 383.593
C 352.449 384.456 353.83 384.822 354.965 385.511
C 355.258 386.617 355.365 386.93 354.915 387.989
C 354.889 388.155 354.864 388.322 354.839 388.488
C 353.818 389.027 354.473 391.132 355.51 391.36
C 353.936 391.936 352.049 391.484 350.425 391.422
C 348.958 391.365 347.468 391.645 346.007 391.76
C 344.517 391.697 344.242 390.773 344.867 389.427
C 345.117 389.199 346.483 388.436 346.161 388.126
C 345.493 388.058 344.896 387.966 344.341 387.571
C 342.534 385.46 341.84 383.681 339.445 382.122 Z"
opacity="1" fill="rgb(226,221,211)" fill-rule="evenodd" />
<path d="
M 350.943 166.099
C 351.039 165.518 351.009 165.855 350.979 165.084
C 352.307 164.105 355.847 164.745 357.506 164.738
C 363.058 164.715 368.629 164.507 374.178 164.672
C 375.194 166.553 374.77 170.381 374.887 172.517
C 375.72 173.21 378.697 172.789 379.802 172.801
C 384.201 172.852 388.829 172.454 393.199 172.943
C 393.522 174.222 393.331 175.656 393.503 176.969
C 393.859 179.69 394.623 182.844 395.939 185.266
C 396.994 187.206 398.767 188.66 399.875 190.571
C 400.189 191.112 400.837 191.986 400.751 192.633
C 395.423 192.993 389.999 192.69 384.658 192.662
C 382.218 192.65 379.05 193.243 376.703 192.524
C 375.311 192.097 374.098 191.02 372.916 190.213
C 370.639 188.657 368.282 187.211 365.931 185.773
C 362.59 183.729 359.263 181.421 355.765 179.664
C 354.152 178.853 352.161 178.677 350.688 177.62
C 350.629 173.802 350.726 169.913 350.943 166.099 Z
M 357.492 171.618
C 357.244 173.751 357.543 175.942 357.373 178.09
C 360.367 178.373 364.957 178.617 367.864 177.931
C 368.223 175.492 368.063 172.721 368.082 170.251
C 365.569 170.14 363.014 170.228 360.499 170.271
C 359.579 170.287 358.278 170.059 357.568 170.676
C 357.544 171.38 357.579 171.067 357.492 171.618 Z
M 380.797 178.345
C 380.773 181.104 380.853 183.958 380.627 186.702
C 381.941 187.484 385.33 186.536 386.945 186.534
C 387.222 186.534 388.728 186.794 388.879 186.552
C 388.63 183.912 388.624 181.198 388.697 178.553
C 386.124 178.776 383.391 178.365 380.797 178.345 Z"
opacity="1" fill="rgb(6,72,61)" fill-rule="evenodd" />
<path d="
M 351.434 383.593
C 352.143 382.668 351.646 380.05 351.792 378.896
C 352.067 377.943 353.086 378.415 353.588 377.841
C 355.512 379.042 357.087 380.66 359.025 381.861
C 359.935 383.452 360.672 385.322 361.527 386.973
C 360.616 386.006 359.259 386.653 358.305 387.217
C 358.345 386.53 357.462 386.432 356.976 386.534
C 356.022 385.956 356.224 384.839 354.965 385.511
C 353.83 384.822 352.449 384.456 351.434 383.593 Z"
opacity="1" fill="rgb(57,113,100)" fill-rule="evenodd" />
<path d="
M 352.027 370.422
C 356.552 368.756 361.161 367.031 365.525 364.976
C 368.424 363.611 371.092 361.825 374.074 360.63
C 374.203 361.923 374.373 363.186 374.555 364.471
C 384.864 364.412 395.192 364.627 405.506 364.685
C 408.673 364.703 411.837 364.685 415.004 364.654
C 416.188 364.642 417.853 364.875 418.961 364.425
C 419.439 361.235 419.204 357.771 419.115 354.549
C 419.687 354.274 420.434 354.719 421.05 354.856
C 422.791 355.242 424.538 355.698 426.211 356.319
C 426.545 356.682 426.401 357.841 426.405 358.359
C 426.421 360.075 426.422 361.791 426.422 363.507
C 426.421 370.46 426.116 377.483 426.379 384.428
C 409.24 384.477 391.881 383.752 374.772 384.816
C 373.967 386.479 373.964 390.376 374.351 392.208
C 372.817 392.221 371.281 392.133 369.748 392.133
C 367.927 388.982 366.603 385.475 363.791 383.025
C 364.101 382.186 366.961 382.671 367.903 382.691
C 368.648 379.803 368.122 376.108 367.95 373.147
C 364.896 373.468 361.407 373.603 358.347 373.397
C 358.294 373.933 358.335 374.46 358.307 374.996
C 357.617 375.048 356.786 374.179 356.223 373.821
C 354.606 372.792 353.003 372.014 351.498 370.796
C 351.675 370.671 351.851 370.546 352.027 370.422 Z
M 379.538 378.143
C 379.576 378.801 379.467 378.528 379.791 378.988
C 382.252 378.691 384.899 378.818 387.378 378.89
C 387.853 376.165 387.683 373.141 387.704 370.37
C 385.069 370.478 382.407 370.334 379.773 370.312
C 379.382 372.898 379.82 375.557 379.538 378.143 Z
M 394.991 371.627
C 394.85 373.412 394.923 375.213 394.914 377.002
C 394.911 377.579 394.719 378.78 395.124 379.198
C 397.468 378.953 400.622 379.708 402.832 378.918
C 402.813 376.135 402.615 373.234 402.883 370.466
C 400.584 370.262 397.228 369.88 395.017 370.524
C 395.051 371.376 395.08 371.01 394.991 371.627 Z
M 410.466 371.623
C 410.222 374.117 410.421 376.642 410.293 379.139
C 412.38 379.477 416.28 379.334 418.353 378.933
C 418.163 376.201 418.264 373.123 418.476 370.388
C 415.964 370.234 412.992 369.972 410.529 370.519
C 410.523 371.357 410.558 370.99 410.466 371.623 Z"
opacity="1" fill="rgb(5,69,57)" fill-rule="evenodd" />
<path d="
M 354.839 388.488
C 355.794 389.219 357.407 387.711 358.305 387.217
C 359.259 386.653 360.616 386.006 361.527 386.973
C 362.911 388.544 363.37 390.252 365.002 391.592
C 361.853 391.258 358.684 391.417 355.51 391.36
C 354.473 391.132 353.818 389.027 354.839 388.488 Z"
opacity="1" fill="rgb(46,95,84)" fill-rule="evenodd" />
<path d="
M 354.965 385.511
C 356.224 384.839 356.022 385.956 356.976 386.534
C 356.247 386.84 355.645 387.588 354.915 387.989
C 355.365 386.93 355.258 386.617 354.965 385.511 Z"
opacity="1" fill="rgb(108,136,139)" fill-rule="evenodd" />
<path d="
M 354.915 387.989
C 355.645 387.588 356.247 386.84 356.976 386.534
C 357.462 386.432 358.345 386.53 358.305 387.217
C 357.407 387.711 355.794 389.219 354.839 388.488
C 354.864 388.322 354.889 388.155 354.915 387.989 Z"
opacity="1" fill="rgb(109,147,152)" fill-rule="evenodd" />
<path d="
M 360.006 479.402
C 361.847 479.025 363.959 479.096 364.734 477.004
C 365.585 474.706 365.268 471.855 365.312 469.443
C 365.405 464.321 365.223 459.176 365.466 454.059
C 365.585 451.528 365.607 449.026 365.455 446.498
C 365.381 445.267 365.546 443.926 365.063 442.763
C 363.743 441.238 359.664 441.526 360.313 439.326
C 362.933 439.377 365.508 439.545 368.134 439.436
C 368.932 439.403 370.732 439.014 371.331 439.497
C 374.127 447.146 378.175 454.668 381.813 461.957
C 383.445 465.226 385.477 468.557 386.569 472.05
C 387.171 472.156 387.401 470.838 387.609 470.357
C 388.488 468.325 389.573 466.383 390.471 464.358
C 392.865 458.961 395.494 453.664 397.906 448.272
C 399.207 445.365 400.234 442.254 401.66 439.42
C 405.29 439.182 408.975 439.623 412.605 439.27
C 412.735 439.747 412.727 440.22 412.72 440.712
C 410.963 440.764 408.487 441.009 407.879 443.05
C 406.863 446.467 407.677 451.162 407.743 454.696
C 407.826 459.202 407.903 463.707 407.941 468.214
C 407.965 470.936 407.759 473.969 408.222 476.654
C 408.503 478.281 409.774 479.166 411.323 479.497
C 412.399 479.727 413.984 479.412 413.791 480.853
C 412.906 481.564 410.639 480.939 409.535 480.951
C 406.833 480.981 404.126 480.823 401.424 480.922
C 399.921 480.977 398.037 481.459 396.562 481.16
C 396.217 481.09 396.557 479.716 396.561 479.679
C 398.295 479.202 400.428 479.503 401.495 477.718
C 402.455 476.11 401.889 473.143 401.87 471.356
C 401.816 466.406 401.791 461.451 401.818 456.501
C 401.831 454.187 401.705 451.83 401.847 449.522
C 401.903 448.613 402.238 447.771 401.644 446.973
C 397.329 455.624 393.026 464.389 389.268 473.302
C 388.381 475.405 387.262 477.404 386.371 479.507
C 386.096 480.156 385.865 481.542 384.917 481.509
C 384.236 481.486 383.821 480.229 383.574 479.746
C 382.54 477.716 381.622 475.591 380.663 473.523
C 378.257 468.335 375.682 463.229 373.324 458.019
C 371.839 454.74 370.594 450.767 368.46 447.876
C 367.904 450.61 368.199 453.693 368.199 456.485
C 368.2 460.715 367.979 464.941 367.848 469.167
C 367.775 471.507 367.121 475.232 368.246 477.372
C 369.509 479.775 372.005 478.396 373.623 479.764
C 373.648 480.227 373.666 480.63 373.578 481.088
C 370.092 481.233 366.496 480.897 362.98 480.952
C 361.5 480.975 359.966 481.41 359.52 479.775
C 359.682 479.651 359.844 479.527 360.006 479.402 Z"
opacity="1" fill="rgb(49,49,50)" fill-rule="evenodd" />
<path d="
M 366.49 330.607
C 367.708 321.441 370.767 313.746 376.879 306.676
C 378.323 305.005 379.927 303.546 381.641 302.151
C 382.085 301.79 382.943 300.796 383.462 300.744
C 389.652 310.99 389.013 325.242 382.356 335.008
C 379.81 338.743 376.521 341.476 373.024 344.288
C 372.164 344.98 371.326 345.703 370.383 346.275
C 370.159 346.412 369.499 347.091 369.413 346.61
C 369.886 343.842 372.178 341.072 373.306 338.477
C 375.53 333.365 377.562 327.948 379.11 322.588
C 379.676 320.627 380.224 318.685 380.726 316.702
C 380.815 316.35 381.258 314.953 380.599 315.093
C 377.282 322.119 374.955 329.642 371.71 336.735
C 370.915 338.473 370.109 340.25 369.477 342.054
C 369.387 342.312 369.157 343.626 368.682 343.529
C 367.679 343.325 367.524 341.443 367.323 340.577
C 366.589 337.416 366.24 333.845 366.49 330.607 Z"
opacity="1" fill="rgb(5,72,60)" fill-rule="evenodd" />
<path d="
M 375.441 233.606
C 375.456 233.369 375.472 233.133 375.488 232.896
C 387.052 235.006 398.457 244.378 401.895 255.696
C 403.154 259.842 403.27 263.817 403.417 268.102
C 403.438 268.707 404.049 271.815 403.269 271.922
C 399.657 265.874 396.48 259.812 392.113 254.212
C 390.698 252.398 389.296 250.571 387.898 248.741
C 387.552 248.289 385.726 246.128 385.737 246.334
C 386.793 249.3 388.753 251.884 390.545 254.449
C 393.149 258.176 395.625 261.988 397.911 265.918
C 398.88 267.584 400.742 269.581 401.099 271.478
C 400.036 271.52 398.969 270.863 398.028 270.415
C 395.579 269.251 393.145 268.248 390.88 266.73
C 388.011 264.807 385.263 262.658 383.089 259.945
C 377.219 252.62 375.45 242.764 375.441 233.606 Z"
opacity="1" fill="rgb(4,71,60)" fill-rule="evenodd" />
<path d="
M 397.418 171.598
C 398.157 168.199 399.318 165.373 400.985 162.324
C 402.823 162.672 404.753 165.473 405.804 166.867
C 410.643 173.283 410.265 183.59 405.173 189.964
C 403.693 189.295 402.653 187.869 401.696 186.611
C 398.426 182.305 396.767 177.014 397.418 171.598 Z"
opacity="1" fill="rgb(210,148,61)" fill-rule="evenodd" />
<path d="
M 404.809 337.526
C 417.355 327.65 434.977 326.911 448.252 335.973
C 451.044 337.879 454.942 340.251 456.522 343.378
C 454.221 345.733 450.833 347.27 447.872 348.585
C 437.385 353.243 425.105 352.975 414.901 347.593
C 412.219 346.178 409.735 344.691 407.476 342.651
C 406.722 341.969 405.501 341.249 405.019 340.384
C 408.172 339.668 411.882 340.264 415.088 340.538
C 419.587 340.923 424.143 341.189 428.656 341.324
C 431.125 341.398 433.59 341.472 436.054 341.649
C 436.814 341.703 437.548 341.676 438.306 341.616
C 438.506 341.6 440.057 341.603 439.699 341.423
C 438.684 340.826 436.946 340.911 435.785 340.828
C 434.39 340.728 432.901 340.307 431.509 340.079
C 422.718 338.64 413.765 338.633 404.905 338.109
C 404.873 337.914 404.841 337.72 404.809 337.526 Z"
opacity="1" fill="rgb(206,141,52)" fill-rule="evenodd" />
<path d="
M 410.509 191.612
C 410.843 190.083 411.048 188.567 411.752 187.156
C 413.909 186.824 416.153 187.024 418.326 187.135
C 418.66 185.307 418.389 183.05 418.38 181.182
C 418.376 180.526 418.577 179.253 418.165 178.727
C 416.624 178.661 414.151 178.871 412.813 178.152
C 412.673 176.599 412.104 174.4 412.819 172.983
C 414.847 173.031 416.86 173.126 418.888 173.266
C 419.877 172.017 419.746 169.65 420.008 168.145
C 421.495 168.027 425.216 167.437 426.44 168.406
C 425.912 176.015 426.402 183.875 426.471 191.507
C 426.493 194.038 426.846 196.773 426.587 199.277
C 425.379 199.657 423.737 199.567 422.454 199.765
C 421.331 199.939 420.325 200.512 419.206 200.657
C 419.448 198.135 419.385 195.473 419.051 192.964
C 416.14 192.689 413.207 192.947 410.296 192.744
C 410.431 191.998 410.36 192.376 410.509 191.612 Z"
opacity="1" fill="rgb(7,71,60)" fill-rule="evenodd" />
<path d="
M 412.947 225.598
C 414.226 220.233 415.834 215.514 418.634 210.717
C 419.336 210.629 420.061 211.733 420.491 212.226
C 422.09 214.057 423.473 216.063 424.659 218.184
C 429.874 227.508 429.148 238.235 423.521 247.153
C 423.016 247.885 421.233 251.528 420.236 251.055
C 420.231 249.029 420.966 246.967 421.215 244.949
C 421.667 241.274 421.853 237.529 421.878 233.828
C 421.893 231.599 421.87 229.377 421.791 227.151
C 421.782 226.91 421.602 225.066 421.464 225.094
C 421.124 225.162 421.335 225.775 421.271 226.116
C 419.896 231.752 419.863 237.861 419.445 243.627
C 419.337 245.108 419.228 246.671 419.27 248.149
C 419.277 248.424 419.391 249.341 419.098 249.483
C 417.516 248.012 416.48 245.667 415.587 243.736
C 412.991 238.121 411.876 231.741 412.947 225.598 Z"
opacity="1" fill="rgb(6,74,61)" fill-rule="evenodd" />
<path d="
M 420.468 457.602
C 421.083 452.464 423.542 447.429 427.478 444.028
C 435.907 436.745 450.667 436.744 458.427 445.129
C 460.645 447.526 462.172 450.484 463.112 453.599
C 464.007 456.568 464.2 459.812 463.802 462.875
C 462.809 470.528 457.558 477.196 450.382 479.995
C 439.254 484.336 424.885 479.721 421.315 467.543
C 420.357 464.276 420.062 460.986 420.468 457.602 Z
M 427.431 455.103
C 426.642 462.819 428.652 471.617 434.962 476.665
C 439.842 480.569 448.341 480.456 452.68 475.709
C 455.303 472.84 456.477 468.832 456.864 465.041
C 457.598 457.836 455.76 449.171 449.97 444.327
C 444.714 439.93 436.527 439.515 431.662 444.814
C 429.102 447.602 427.81 451.393 427.431 455.103 Z"
opacity="1" fill="rgb(48,48,49)" fill-rule="evenodd" />
<path d="
M 426.066 288.154
C 425.51 275.845 432.49 264.437 445.21 262.055
C 445.493 270.884 444.335 279.07 437.131 285.078
C 435.05 286.814 432.776 287.964 430.384 289.198
C 430.002 289.395 427.978 290.599 427.715 290.064
C 430.512 285.805 433.521 281.802 436.124 277.389
C 436.773 276.287 438.784 274.041 438.587 272.722
C 435.037 276.658 431.989 281.048 428.96 285.515
C 428.408 286.329 427.28 289.608 426.06 289.376
C 426.067 288.969 426.07 288.562 426.066 288.154 Z"
opacity="1" fill="rgb(210,148,60)" fill-rule="evenodd" />
<path d="
M 430.96 305.59
C 431.992 301.794 433.048 298.235 435.195 294.884
C 439.781 287.729 448.296 283.639 456.65 283.019
C 456.147 294.159 448.043 303.244 437.607 306.234
C 435.546 306.825 432.898 307.662 430.745 307.551
C 430.719 306.89 430.832 306.239 430.96 305.59 Z"
opacity="1" fill="rgb(4,76,64)" fill-rule="evenodd" />
<path d="
M 437.886 213.593
C 439.278 207.322 441.929 202.198 444.959 196.613
C 446.306 197.982 446.732 200.459 447.189 202.268
C 448.645 208.041 448.434 214.726 447.359 220.541
C 446.944 222.791 446.219 224.919 445.451 227.067
C 445.276 227.556 444.679 229.013 444.967 229.386
C 452.561 229.265 461.04 230.942 467.778 234.495
C 469.467 235.385 472.796 236.542 473.934 238.039
C 461.589 241.188 447.422 239.877 440.415 227.941
C 439.284 226.013 438.427 223.941 437.999 221.744
C 437.477 219.064 437.471 216.287 437.886 213.593 Z"
opacity="1" fill="rgb(205,141,56)" fill-rule="evenodd" />
<path d="
M 442.738 254.631
C 448.548 246.369 460.972 242.38 469.824 248.177
C 469.089 250.264 466.66 252.306 464.921 253.555
C 459.096 257.737 448.894 258.874 442.738 254.631 Z"
opacity="1" fill="rgb(2,71,57)" fill-rule="evenodd" />
<path d="
M 449.506 202.576
C 449.532 202.433 449.559 202.29 449.585 202.146
C 451.333 200.151 453.339 198.431 455.406 196.772
C 456.331 196.029 457.346 194.983 458.525 194.723
C 458.759 202.159 457.857 208.027 454.608 214.761
C 453.864 216.302 453.022 217.787 452.201 219.287
C 452.074 219.519 451.41 220.914 450.976 220.434
C 450.237 219.618 450.842 216.538 450.862 215.501
C 450.946 211.08 450.427 206.894 449.506 202.576 Z"
opacity="1" fill="rgb(198,135,54)" fill-rule="evenodd" />
<path d="
M 451.347 223.197
C 453.575 219.904 456.205 217.044 457.954 213.401
C 458.638 211.977 459.299 210.557 459.871 209.083
C 460.211 208.203 460.256 207.166 461.006 206.507
C 461.836 205.779 463.104 205.533 464.136 205.236
C 466.842 204.457 469.863 203.926 472.677 204.231
C 472.867 204.972 472.538 205.752 472.392 206.485
C 471.683 209.306 469.265 211.722 467.699 214.13
C 467.007 215.193 466.454 216.695 465.325 217.385
C 462.98 218.817 459.722 219.223 457.182 220.35
C 455.686 221.014 454.264 221.731 452.966 222.733
C 452.538 223.064 451.864 223.483 451.347 223.197 Z"
opacity="1" fill="rgb(201,133,47)" fill-rule="evenodd" />
<path d="
M 451.999 226.532
C 454.2 224.295 457.109 222.92 460.042 221.876
C 467.187 219.332 475.875 219.068 482.834 222.586
C 482.203 223.822 480.914 224.62 479.898 225.519
C 477.101 227.996 472.286 232.629 468.159 232.082
C 465.168 231.686 462.126 229.648 459.238 228.721
C 456.817 227.944 453.976 228.077 451.693 226.993
C 451.795 226.84 451.897 226.686 451.999 226.532 Z"
opacity="1" fill="rgb(212,147,63)" fill-rule="evenodd" />
<path d="
M 469.959 216.062
C 470.818 214.319 472.225 212.511 473.929 211.546
C 476.688 212.204 476.072 216.047 474.554 217.673
C 473.276 218.307 471.187 217.774 469.825 217.629
C 469.629 217.066 469.812 216.63 469.959 216.062 Z"
opacity="1" fill="rgb(186,130,51)" fill-rule="evenodd" />
<path d="
M 470.406 439.981
C 471.067 439.068 472.121 439.406 473.185 439.455
C 475.825 439.577 478.478 439.447 481.123 439.499
C 487.075 439.616 493.789 438.526 498.975 442.215
C 503.066 445.125 503.643 451.086 501.042 455.148
C 499.476 457.593 496.075 459.711 493.318 460.477
C 495.025 463.475 497.383 466.306 499.372 469.138
C 501.36 471.969 503.331 475.893 506.139 477.974
C 507.376 478.891 508.999 479.161 510.462 479.515
C 510.542 479.848 510.716 480.726 510.522 481.031
C 510.303 481.377 508.315 481.153 507.974 481.141
C 506.137 481.077 502.402 481.557 500.795 480.558
C 499.101 479.504 497.862 477.318 496.718 475.735
C 493.637 471.47 491.095 466.201 487.524 462.365
C 486.199 461.514 483.904 461.781 482.379 461.793
C 482.116 465.833 482.312 469.943 482.324 473.993
C 482.328 475.245 481.967 477.252 482.86 478.232
C 484.323 479.334 486.08 479.005 487.716 479.577
C 487.802 480.03 488.038 480.62 487.612 480.917
C 481.904 481.098 476.17 480.56 470.454 480.959
C 470.045 478.943 474.189 479.16 475.444 477.712
C 476.486 475.594 475.971 472.328 476.04 469.988
C 476.223 463.733 476.081 457.456 476.099 451.199
C 476.107 448.772 476.783 444.544 475.574 442.382
C 474.232 441.151 472.15 440.877 470.41 440.655
C 470.409 440.431 470.407 440.206 470.406 439.981 Z
M 482.103 459.177
C 482.099 459.322 482.094 459.467 482.09 459.611
C 485.405 459.454 489.12 459.589 492.08 457.828
C 496.281 455.33 496.586 448.35 493.655 444.763
C 492.123 442.886 489.971 442.061 487.611 441.899
C 486.173 441.799 483.475 441.358 482.351 442.4
C 482.086 447.822 483.145 453.854 482.103 459.177 Z"
opacity="1" fill="rgb(48,48,49)" fill-rule="evenodd" />
<path d="
M 514.302 439.83
C 515.637 439.038 517.453 439.573 518.97 439.582
C 522.172 439.602 525.45 439.801 528.634 439.433
C 529.88 439.289 531.55 439.179 531.217 440.816
C 529.584 440.86 526.88 441.314 526.09 442.954
C 524.984 445.253 525.681 449.09 525.692 451.576
C 525.72 457.716 525.747 463.857 525.748 469.998
C 525.748 472.426 525.17 475.838 526.306 478.057
C 527.617 479.574 531.404 478.629 531.361 480.919
C 529.879 481.264 528.023 480.902 526.501 480.86
C 523.668 480.781 520.849 480.804 518.019 480.94
C 516.427 481.016 514.147 481.722 514.088 479.644
C 515.601 478.587 517.877 479.746 519.246 478.112
C 520.214 475.573 519.713 472.19 519.725 469.502
C 519.751 463.503 519.678 457.504 519.67 451.505
C 519.667 449.46 519.66 447.418 519.625 445.374
C 519.608 444.389 519.757 443.122 519.204 442.276
C 517.951 441.506 514.27 441.287 514.302 439.83 Z"
opacity="1" fill="rgb(48,49,50)" fill-rule="evenodd" />
<path d="
M 537.851 439.962
C 537.958 439.779 538.065 439.597 538.173 439.414
C 542.797 439.01 547.636 439.533 552.28 439.587
C 557.885 439.652 563.522 439.288 569.113 439.417
C 569.448 439.946 569.198 440.895 569.186 441.497
C 569.148 443.4 569.919 446.164 569.357 447.956
C 569.205 448.439 568.419 448.336 568.023 448.392
C 566.699 446.707 567.075 444.118 565.505 442.407
C 561.896 441.196 557.253 441.991 553.502 441.958
C 552.605 441.95 550.329 441.505 549.723 442.218
C 549.215 447.536 550.001 452.941 549.659 458.261
C 550.756 458.569 552.154 458.307 553.291 458.302
C 556.104 458.289 559.509 458.814 562.168 457.739
C 563.217 456.466 563.144 454.465 563.265 452.894
C 563.686 452.398 564.302 452.401 564.907 452.597
C 565.15 456.145 564.756 459.73 564.9 463.292
C 564.968 464.981 565.687 466.636 563.756 466.8
C 562.64 465.18 563.486 462.925 562.016 461.37
C 561.04 460.741 559.636 460.866 558.509 460.812
C 555.607 460.674 552.659 460.699 549.758 460.829
C 549.297 466.367 549.245 472.653 549.836 478.18
C 553.711 478.383 557.685 478.395 561.562 478.164
C 563.337 478.059 565.593 477.984 567.07 476.866
C 568.953 475.441 569.768 472.466 570.455 470.327
C 570.9 470.308 571.781 470.381 572.127 470.69
C 572.579 471.093 571.887 472.741 571.761 473.17
C 571.232 474.977 570.949 476.837 570.555 478.675
C 570.432 479.247 570.411 480.545 569.979 480.922
C 561.849 480.517 553.639 480.82 545.498 480.826
C 543.551 480.827 541.588 480.887 539.647 481.02
C 539.344 481.041 538.165 481.267 537.936 480.962
C 537.886 480.896 537.9 479.942 537.9 479.845
C 539.633 479.101 541.914 479.615 543.023 477.697
C 543.46 476.941 543.347 475.75 543.35 474.914
C 543.357 472.942 543.372 470.971 543.382 468.999
C 543.412 463.001 543.377 457.003 543.326 451.005
C 543.304 448.364 543.827 444.976 542.912 442.468
C 542.006 441.574 540.742 441.153 539.508 440.919
C 539.338 440.887 537.886 440.839 537.822 440.701
C 537.717 440.477 537.841 440.208 537.851 439.962 Z"
opacity="1" fill="rgb(47,47,48)" fill-rule="evenodd" />
<path d="
M 578.41 469.369
C 579.003 469.073 579.741 468.879 580.31 469.246
C 581.026 473.665 583.033 477.368 587.447 479.025
C 592.594 480.957 599.551 478.398 599.46 472.249
C 599.404 468.473 596.193 465.962 593.232 464.2
C 586.982 460.479 577.882 456.954 579.636 447.924
C 579.941 446.356 580.508 444.982 581.436 443.678
C 582.501 442.183 583.964 440.892 585.618 440.084
C 587.86 438.988 590.369 438.548 592.854 438.627
C 596.095 438.729 599.486 439.518 602.629 440.283
C 603.076 440.772 602.833 441.947 602.808 442.592
C 602.746 444.229 602.817 445.867 602.925 447.5
C 602.953 447.924 603.245 449.47 602.867 449.775
C 602.616 449.978 601.805 449.889 601.477 449.918
C 599.918 446.299 599.848 443.229 595.74 441.445
C 590.703 439.259 583.757 442.43 584.828 448.588
C 585.312 451.372 587.545 453.18 589.74 454.67
C 594.096 457.628 599.945 459.123 603.136 463.573
C 608.704 471.34 602.116 479.919 593.898 481.485
C 588.5 482.512 583.866 480.515 578.784 479.102
C 578.079 476.055 578.584 472.493 578.41 469.369 Z"
opacity="1" fill="rgb(51,51,51)" fill-rule="evenodd" />

</svg>